<svg xmlns="http://www.w3.org/2000/svg" width="18" height="18" fill="none">
  <path fill="url(#paint0_linear_105_1181)" d="M9.75 1.695v3.097c0 .675.008.833.158 1.125.142.278.367.51.652.653.293.15.45.157 1.125.157h3.098c.412 0 .75-.337.75-.75 0-.42-.338-.75-.75-.75h-3.105c-.375 0-.465-.007-.458 0l-.007-.007V1.665c0-.42-.338-.75-.75-.75-.42 0-.75.33-.75.75l.037.03Zm.75 10.297H6c-.42 0-.75.33-.75.75 0 .413.33.75.75.75h4.5c.413 0 .75-.337.75-.75 0-.42-.337-.75-.75-.75Zm1.5-3H6c-.42 0-.75.33-.75.75 0 .413.33.75.75.75h6c.413 0 .75-.337.75-.75 0-.42-.337-.75-.75-.75Zm2.25-1.515v5.408c0 1.418-.03 1.763-.165 2.025a1.54 1.54 0 0 1-.66.652c-.27.136-.607.158-2.032.158h-4.8c-1.425 0-1.77-.03-2.033-.165a1.517 1.517 0 0 1-.66-.66c-.142-.27-.165-.607-.165-2.032v-7.8c0-1.426.023-1.77.158-2.033.142-.285.367-.518.652-.66.263-.143.6-.165 2.025-.165h2.408c.615 0 .757 0 .907.037.15.03.293.09.428.173.015.007.03.022.052.03.113.075.225.18.615.577l2.385 2.385c.435.435.533.54.608.668.075.127.142.277.172.427.03.143.038.285.038.908l.067.067Zm1.5 0c0-.757-.015-.952-.09-1.26a3.05 3.05 0 0 0-.36-.87c-.172-.277-.3-.42-.832-.952l-2.393-2.393c-.465-.465-.6-.592-.817-.742-.053-.038-.098-.068-.143-.098a2.85 2.85 0 0 0-.87-.36c-.315-.075-.502-.09-1.26-.09H6.57c-1.732 0-2.137.03-2.715.323A2.946 2.946 0 0 0 2.543 2.34c-.3.57-.33.982-.33 2.707v7.8c0 1.726.03 2.13.322 2.708.285.563.743 1.02 1.305 1.305.57.293.983.323 2.708.323h4.8c1.725 0 2.13-.038 2.707-.33a3.022 3.022 0 0 0 1.305-1.313c.293-.577.323-.99.323-2.715V7.41l.067.067Z"/>
  <defs>
    <linearGradient id="paint0_linear_105_1181" x1="2.213" x2="15.747" y1="8.947" y2="8.721" gradientUnits="userSpaceOnUse">
      <stop stop-color="#fff" stop-opacity=".8"/>
      <stop offset="1" stop-color="#fff" stop-opacity=".4"/>
    </linearGradient>
  </defs>
</svg>