<svg xmlns="http://www.w3.org/2000/svg" width="18" height="18" fill="none">
  <path fill="url(#paint0_linear_105_1173)" d="M5.625 9.75h.008c.412 0 .75-.338.75-.75 0-.42-.338-.75-.75-.75h-.008c-.42 0-.75.33-.75.75 0 .412.33.75.75.75ZM9 9.75h.008c.412 0 .75-.338.75-.75 0-.42-.338-.75-.75-.75H9c-.42 0-.75.33-.75.75 0 .412.33.75.75.75Zm3.375 0h.008c.412 0 .75-.338.75-.75 0-.42-.338-.75-.75-.75h-.008c-.42 0-.75.33-.75.75 0 .412.33.75.75.75ZM9 16.5c4.14 0 7.5-3.36 7.5-7.5 0-4.147-3.36-7.5-7.5-7.5A7.493 7.493 0 0 0 1.5 9c0 .975.188 1.928.547 2.82.053.127.068.172.068.165l-.008-.008c-.007-.007-.007.015-.03.136l-.45 2.662c-.097.54-.105.652.023.938.113.262.323.472.585.585.285.12.39.112.938.022l2.662-.45a.883.883 0 0 0 .135-.03c-.007-.008.03.008.165.068.885.36 1.838.547 2.82.547L9 16.5ZM9 15a6.024 6.024 0 0 1-2.258-.443c-.247-.104-.292-.12-.404-.142a1.274 1.274 0 0 0-.33-.037c-.12 0-.173.007-.39.037l-2.67.443a4.71 4.71 0 0 0-.263.037c.022-.008.075 0 .157.037a.38.38 0 0 1 .196.195c.03.075.037.128.037.158 0-.045.007-.098.037-.262l.443-2.67c.03-.226.037-.278.037-.39a2.337 2.337 0 0 0-.037-.33 2.437 2.437 0 0 0-.143-.405A5.998 5.998 0 0 1 8.97 2.97c3.307-.001 6 2.684 6 5.999 0 3.307-2.693 6-6 6L9 15ZM5.25 9c0-.21.165-.375.375-.375.202 0 .375.165.375.375a.381.381 0 0 1-.375.375A.376.376 0 0 1 5.25 9Zm1.5 0c0-.623-.51-1.125-1.125-1.125C5.003 7.875 4.5 8.377 4.5 9c0 .615.503 1.125 1.125 1.125.615 0 1.125-.51 1.125-1.125Zm1.875 0c0-.21.165-.375.375-.375.203 0 .375.165.375.375A.381.381 0 0 1 9 9.375.376.376 0 0 1 8.625 9Zm1.5 0c0-.623-.51-1.125-1.125-1.125-.623 0-1.125.502-1.125 1.125 0 .615.502 1.125 1.125 1.125.615 0 1.125-.51 1.125-1.125ZM12 9c0-.21.165-.375.375-.375.203 0 .375.165.375.375a.381.381 0 0 1-.375.375A.376.376 0 0 1 12 9Zm1.5 0c0-.623-.51-1.125-1.125-1.125-.623 0-1.125.502-1.125 1.125 0 .615.502 1.125 1.125 1.125.615 0 1.125-.51 1.125-1.125Z"/>
  <defs>
    <linearGradient id="paint0_linear_105_1173" x1="1.5" x2="16.494" y1="9" y2="8.695" gradientUnits="userSpaceOnUse">
      <stop stop-color="#fff" stop-opacity=".8"/>
      <stop offset="1" stop-color="#fff" stop-opacity=".4"/>
    </linearGradient>
  </defs>
</svg>